<?xml version="1.0" encoding="UTF-8" standalone="no"?>
<svg
   id="Laag_1"
   version="1.1"
   viewBox="0 0 52.050004 52.060001"
   sodipodi:docname="favicon.svg"
   width="52.050003"
   height="52.060001"
   inkscape:version="1.4.2 (2aeb623e1d, 2025-05-12)"
   xmlns:inkscape="http://www.inkscape.org/namespaces/inkscape"
   xmlns:sodipodi="http://sodipodi.sourceforge.net/DTD/sodipodi-0.dtd"
   xmlns="http://www.w3.org/2000/svg"
   xmlns:svg="http://www.w3.org/2000/svg">
  <sodipodi:namedview
     id="namedview4"
     pagecolor="#ffffff"
     bordercolor="#000000"
     borderopacity="0.25"
     inkscape:showpageshadow="2"
     inkscape:pageopacity="0.0"
     inkscape:pagecheckerboard="0"
     inkscape:deskcolor="#d1d1d1"
     inkscape:zoom="13.520665"
     inkscape:cx="26.034222"
     inkscape:cy="27.402498"
     inkscape:window-width="2560"
     inkscape:window-height="1323"
     inkscape:window-x="0"
     inkscape:window-y="0"
     inkscape:window-maximized="1"
     inkscape:current-layer="Laag_1" />
  <!-- Generator: Adobe Illustrator 29.8.3, SVG Export Plug-In . SVG Version: 2.1.1 Build 3)  -->
  <defs
     id="defs2">
    <style
       id="style1">
      .st0 {
        fill: none;
      }

      .st1 {
        fill: #e94e24;
      }

      .st2 {
        clip-path: url(#clippath-1);
      }

      .st3 {
        fill: #fff;
      }

      .st4 {
        clip-path: url(#clippath);
      }
    </style>
    <clipPath
       id="clippath">
      <rect
         class="st0"
         x="12.8"
         y="12.29"
         width="52.060001"
         height="52.060001"
         id="rect1" />
    </clipPath>
    <clipPath
       id="clippath-1">
      <rect
         class="st0"
         x="21.52"
         y="31.15"
         width="34.630001"
         height="14.34"
         id="rect2" />
    </clipPath>
  </defs>
  <g
     class="st4"
     clip-path="url(#clippath)"
     id="g4"
     transform="translate(-12.81,-12.29)">
    <path
       class="st1"
       d="m 38.84,64.35 c 14.38,0 26.03,-11.65 26.03,-26.03 0,-14.38 -11.65,-26.03 -26.03,-26.03 -14.38,0 -26.03,11.65 -26.03,26.03 0,14.38 11.65,26.03 26.03,26.03"
       id="path2" />
    <g
       class="st2"
       clip-path="url(#clippath-1)"
       id="g3">
      <path
         class="st3"
         d="m 33.96,33.4 c 0,0.91 -0.74,1.66 -1.66,1.66 -0.92,0 -1.66,-0.74 -1.66,-1.66 0,-0.92 0.74,-1.66 1.66,-1.66 0.92,0 1.66,0.74 1.66,1.66 m 22.19,5.02 c 0,-3.91 -3.17,-7.07 -7.07,-7.07 -0.06,0 -0.11,0 -0.17,0 -0.05,0 -0.09,0 -0.14,0 -2.51,0 -4.71,1.33 -5.94,3.33 0,0 -0.45,0.61 -0.72,0.88 -0.89,0.89 -2.08,1.2 -3.24,1.2 h -0.08 c -1.2,0 -2.32,-0.32 -3.21,-1.2 -0.27,-0.27 -0.72,-0.88 -0.72,-0.88 -0.13,-0.22 -0.28,-0.42 -0.44,-0.62 0.07,-0.21 0.1,-0.44 0.1,-0.67 0,-1.23 -1,-2.23 -2.23,-2.23 -0.52,0 -1.01,0.18 -1.39,0.48 -0.63,-0.19 -1.3,-0.29 -1.99,-0.29 -0.05,0 -0.09,0 -0.14,0 -0.06,0 -0.11,0 -0.17,0 -3.91,0 -7.07,3.17 -7.07,7.07 0,3.9 3.17,7.07 7.07,7.07 0.19,0 0.38,-0.01 0.57,-0.03 h 0.02 c 2.4,-0.09 4.48,-1.38 5.66,-3.3 0,0 0.45,-0.61 0.72,-0.88 0.89,-0.89 1.97,-1.2 3.24,-1.2 h 0.06 c 1.16,0 2.35,0.31 3.24,1.2 0.27,0.27 0.72,0.88 0.72,0.88 1.18,1.92 3.27,3.21 5.66,3.31 h 0.02 c 0.19,0 0.38,0.02 0.57,0.02 3.91,0 7.07,-3.17 7.07,-7.07"
         id="path3" />
    </g>
  </g>
</svg>
