<?xml version="1.0" encoding="UTF-8" standalone="no"?>
<svg
   id="Laag_1"
   version="1.1"
   viewBox="0 0 177.76 199.26224"
   sodipodi:docname="test.svg"
   inkscape:export-filename="../136a68a6/logo.svg"
   inkscape:export-xdpi="96"
   inkscape:export-ydpi="96"
   inkscape:version="1.4.2 (2aeb623e1d, 2025-05-12)"
   width="177.75999"
   height="199.26224"
   xmlns:inkscape="http://www.inkscape.org/namespaces/inkscape"
   xmlns:sodipodi="http://sodipodi.sourceforge.net/DTD/sodipodi-0.dtd"
   xmlns="http://www.w3.org/2000/svg"
   xmlns:svg="http://www.w3.org/2000/svg">
  <sodipodi:namedview
     id="namedview3"
     pagecolor="#ffffff"
     bordercolor="#000000"
     borderopacity="0.25"
     inkscape:showpageshadow="2"
     inkscape:pageopacity="0.0"
     inkscape:pagecheckerboard="0"
     inkscape:deskcolor="#d1d1d1"
     inkscape:zoom="3.9335357"
     inkscape:cx="88.724248"
     inkscape:cy="93.173172"
     inkscape:window-width="2560"
     inkscape:window-height="1323"
     inkscape:window-x="0"
     inkscape:window-y="0"
     inkscape:window-maximized="1"
     inkscape:current-layer="Laag_1" />
  <!-- Generator: Adobe Illustrator 29.8.3, SVG Export Plug-In . SVG Version: 2.1.1 Build 3)  -->
  <defs
     id="defs1">
    <style
       id="style1">
      .st0 {
        fill: #e94e24;
      }

      .st1 {
        fill: #1d1d1b;
      }
    </style>
  </defs>
  <path
     class="st1"
     d="m 175.97,198.8 -10.76,-11.96 10.15,-11.89 h -5.62 l -9.21,10.89 v -10.89 h -4.56 v 23.85 h 4.56 v -11.02 l 9.79,11.02 h 5.66 z M 148.7,174.95 h -16.74 v 23.85 h 17.06 v -4.1 h -12.54 v -5.82 h 10.89 v -4.04 h -10.89 v -5.82 h 12.21 v -4.07 z m -38.04,11.99 v -7.92 h 3.81 c 3.72,0 5.56,1.39 5.56,3.94 0,2.55 -1.84,3.97 -5.56,3.97 h -3.81 z m 15.45,11.86 -6.04,-9.02 c 2.88,-1.29 4.49,-3.72 4.49,-6.82 0,-4.85 -3.91,-8.01 -10.08,-8.01 h -8.34 v 23.85 h 4.52 v -7.92 h 3.81 c 0.32,0 0.78,-0.03 1.33,-0.07 l 5.17,7.98 h 5.14 z M 94.86,183.16 c 0,2.71 -1.84,4.17 -5.59,4.17 h -3.88 v -8.31 h 3.88 c 3.75,0 5.59,1.42 5.59,4.14 m 4.49,0 c 0,-4.82 -3.72,-8.21 -10.12,-8.21 h -8.37 v 23.85 h 4.52 v -7.43 h 3.85 c 6.4,0 10.12,-3.39 10.12,-8.21 m -44.5,10.92 c 1.58,3.13 5.2,5.17 9.73,5.17 5.53,0 9.37,-3.01 9.37,-7.17 0,-3.36 -2.13,-5.59 -6.43,-6.69 l -2.94,-0.78 c -3.13,-0.78 -4.36,-1.62 -4.36,-3.17 0,-1.71 1.81,-2.91 4.23,-2.91 2.42,0 4.56,1.13 5.46,2.81 l 3.72,-2 c -1.52,-2.97 -5.01,-4.85 -9.11,-4.85 -5.27,0 -8.82,3.01 -8.82,7.14 0,3.26 2.13,5.46 6.43,6.56 l 2.94,0.78 c 3.14,0.78 4.36,1.65 4.36,3.3 0,1.78 -2.07,2.94 -4.78,2.94 -2.71,0 -5.04,-1.36 -6.04,-3.2 l -3.75,2.07 z M 48.74,174.95 H 32 v 23.85 h 17.06 v -4.1 H 36.52 v -5.82 h 10.89 v -4.04 H 36.52 v -5.82 H 48.74 Z M 1.37,186.88 c -0.13,6.95 5.56,12.51 12.7,12.38 2.17,0 4.2,-0.39 6.11,-1.16 1.94,-0.74 3.39,-1.71 4.33,-2.88 v -9.66 H 13.75 v 3.81 h 6.56 v 3.81 c -1.29,1.16 -3.62,1.87 -6.24,1.87 -4.75,0 -8.14,-3.55 -8.14,-8.18 0,-4.63 3.2,-8.14 7.88,-8.14 2.94,0 5.24,1.29 6.63,3.39 l 3.88,-2.2 c -2.07,-3.26 -5.85,-5.43 -10.5,-5.43 -7.08,-0.13 -12.57,5.37 -12.44,12.38"
     id="path1" />
  <path
     class="st1"
     d="m 163.5,135.26 h -4.74 v 24.8 h 17.07 v -4.27 H 163.5 Z m -27.04,15.56 3.8,-9.95 3.76,9.95 z m 11.09,9.24 h 5.04 l -9.85,-24.8 h -4.87 l -9.85,24.8 h 4.91 l 2.02,-5.28 h 10.59 l 2.02,5.28 z m -39.84,-9.24 3.8,-9.95 3.76,9.95 z m 11.09,9.24 h 5.04 l -9.85,-24.8 h -4.87 l -9.85,24.8 h 4.91 l 2.02,-5.28 h 10.59 l 2.02,5.28 z m -42.37,-24.8 h -4.54 v 24.8 h 4.67 v -16.97 l 12.03,16.97 h 4.54 v -24.8 h -4.67 v 16.97 z m -36.35,12.4 c -0.13,7.23 5.78,13.01 13.21,12.87 2.25,0 4.37,-0.4 6.35,-1.21 2.02,-0.77 3.53,-1.78 4.5,-2.99 V 146.28 H 52.95 v 3.97 h 6.82 v 3.97 c -1.34,1.21 -3.76,1.95 -6.49,1.95 -4.94,0 -8.47,-3.7 -8.47,-8.5 0,-4.8 3.33,-8.47 8.2,-8.47 3.06,0 5.44,1.35 6.89,3.53 l 4.03,-2.28 c -2.15,-3.4 -6.08,-5.65 -10.92,-5.65 -7.36,-0.14 -13.07,5.58 -12.94,12.87 m -7.2,-12.41 h -4.74 v 24.8 h 4.74 z m -31.74,19.9 c 1.65,3.26 5.41,5.38 10.12,5.38 5.75,0 9.75,-3.12 9.75,-7.46 0,-3.49 -2.22,-5.81 -6.69,-6.96 l -3.06,-0.81 c -3.26,-0.81 -4.54,-1.68 -4.54,-3.29 0,-1.78 1.88,-3.02 4.4,-3.02 2.52,0 4.74,1.18 5.68,2.92 l 3.86,-2.08 c -1.58,-3.09 -5.21,-5.04 -9.48,-5.04 -5.48,0 -9.17,3.12 -9.17,7.43 0,3.39 2.22,5.68 6.69,6.82 l 3.06,0.81 c 3.26,0.81 4.54,1.71 4.54,3.43 0,1.85 -2.15,3.06 -4.97,3.06 -2.82,0 -5.24,-1.41 -6.28,-3.33 l -3.9,2.15 z"
     id="path2" />
  <path
     class="st0"
     d="m 63.85,11.52 c 0,4.7 -3.81,8.5 -8.5,8.5 -4.69,0 -8.5,-3.81 -8.5,-8.5 0,-4.69 3.81,-8.5 8.5,-8.5 4.69,0 8.5,3.81 8.5,8.5 m 113.89,25.77 c 0,-20.05 -16.25,-36.3 -36.3,-36.3 -0.3,0 -0.59,0.04 -0.89,0.04 -0.25,0 -0.48,-0.04 -0.73,-0.04 -12.9,0 -24.18,6.85 -30.48,17.08 0,0 -2.32,3.15 -3.71,4.54 -4.56,4.56 -10.67,6.18 -16.63,6.18 h -0.43 c -6.13,0 -11.91,-1.62 -16.47,-6.18 -1.38,-1.38 -3.7,-4.54 -3.7,-4.54 -0.69,-1.11 -1.44,-2.18 -2.24,-3.2 0.34,-1.08 0.53,-2.24 0.53,-3.44 C 66.69,5.12 61.58,0 55.26,0 52.57,0 50.1,0.94 48.15,2.49 44.91,1.52 41.48,0.98 37.92,0.98 37.67,0.98 37.44,1.02 37.19,1.02 36.89,1.02 36.6,0.98 36.3,0.98 16.25,0.98 0,17.23 0,37.28 c 0,20.05 16.25,36.3 36.3,36.3 0.99,0 1.96,-0.07 2.93,-0.15 l 0.11,0.06 C 51.64,73 62.33,66.35 68.4,56.5 c 0,0 2.32,-3.15 3.7,-4.53 4.56,-4.56 10.11,-6.16 16.62,-6.16 h 0.3 c 5.97,0 12.06,1.6 16.62,6.16 1.38,1.38 3.71,4.53 3.71,4.53 6.07,9.85 16.76,16.5 29.06,16.99 l 0.11,-0.06 c 0.97,0.08 1.95,0.15 2.94,0.15 20.05,0 36.3,-16.25 36.3,-36.3"
     id="path3" />
</svg>
