<?xml version="1.0" encoding="UTF-8" standalone="no"?>
<svg
   id="Laag_1"
   version="1.1"
   viewBox="0 0 492.55001 29.899997"
   sodipodi:docname="logo-menu.svg"
   width="492.54999"
   height="29.899998"
   inkscape:version="1.4.2 (2aeb623e1d, 2025-05-12)"
   xmlns:inkscape="http://www.inkscape.org/namespaces/inkscape"
   xmlns:sodipodi="http://sodipodi.sourceforge.net/DTD/sodipodi-0.dtd"
   xmlns="http://www.w3.org/2000/svg"
   xmlns:svg="http://www.w3.org/2000/svg">
  <sodipodi:namedview
     id="namedview2"
     pagecolor="#ffffff"
     bordercolor="#000000"
     borderopacity="0.25"
     inkscape:showpageshadow="2"
     inkscape:pageopacity="0.0"
     inkscape:pagecheckerboard="0"
     inkscape:deskcolor="#d1d1d1"
     inkscape:zoom="3.4585793"
     inkscape:cx="231.59798"
     inkscape:cy="105.39009"
     inkscape:window-width="2560"
     inkscape:window-height="1323"
     inkscape:window-x="0"
     inkscape:window-y="0"
     inkscape:window-maximized="1"
     inkscape:current-layer="g2" />
  <!-- Generator: Adobe Illustrator 29.8.3, SVG Export Plug-In . SVG Version: 2.1.1 Build 3)  -->
  <defs
     id="defs1">
    <style
       id="style1">
      .st0 {
        fill: none;
      }

      .st1 {
        fill: #e94e24;
      }

      .st2 {
        fill: #1d1d1b;
      }

      .st3 {
        clip-path: url(#clippath);
      }
    </style>
    <clipPath
       id="clippath">
      <rect
         class="st0"
         x="20.15"
         y="19.17"
         width="495.53"
         height="35.009998"
         id="rect1" />
    </clipPath>
  </defs>
  <g
     class="st3"
     clip-path="url(#clippath)"
     id="g2"
     transform="translate(-20.15,-24.28)">
    <path
       class="st2"
       d="M 410.2,52.79 398.4,39.68 409.53,26.64 h -6.17 l -10.1,11.94 V 26.64 h -4.99 V 52.8 h 4.99 V 40.71 L 404,52.8 h 6.2 z M 380.28,26.63 h -18.36 v 26.16 h 18.71 v -4.5 H 366.88 V 41.9 h 11.95 v -4.43 h -11.95 v -6.39 h 13.4 v -4.46 z m -41.72,13.15 v -8.69 h 4.18 c 4.08,0 6.1,1.53 6.1,4.33 0,2.8 -2.02,4.36 -6.1,4.36 z m 16.95,13.01 -6.62,-9.89 c 3.15,-1.42 4.92,-4.07 4.92,-7.48 0,-5.32 -4.29,-8.79 -11.06,-8.79 h -9.14 v 26.16 h 4.96 V 44.1 h 4.18 c 0.35,0 0.85,-0.03 1.45,-0.07 l 5.67,8.76 h 5.63 z M 321.23,35.63 c 0,2.98 -2.02,4.57 -6.14,4.57 h -4.26 v -9.11 h 4.26 c 4.11,0 6.14,1.56 6.14,4.54 m 4.93,0 c 0,-5.28 -4.07,-9 -11.09,-9 h -9.18 v 26.16 h 4.96 v -8.15 h 4.22 c 7.02,0 11.09,-3.72 11.09,-9 m -48.81,11.98 c 1.74,3.44 5.7,5.67 10.67,5.67 6.06,0 10.28,-3.29 10.28,-7.87 0,-3.69 -2.34,-6.13 -7.05,-7.34 l -3.23,-0.85 c -3.44,-0.85 -4.79,-1.77 -4.79,-3.48 0,-1.88 1.99,-3.19 4.65,-3.19 2.66,0 5,1.24 5.99,3.08 l 4.07,-2.2 c -1.67,-3.26 -5.49,-5.31 -9.99,-5.31 -5.78,0 -9.68,3.29 -9.68,7.83 0,3.58 2.34,5.99 7.05,7.2 l 3.23,0.85 c 3.44,0.85 4.79,1.81 4.79,3.62 0,1.95 -2.27,3.23 -5.25,3.23 -2.98,0 -5.53,-1.49 -6.63,-3.51 z m -6.7,-20.99 H 252.29 V 52.79 H 271 v -4.5 H 257.25 V 41.9 h 11.95 v -4.43 h -11.95 v -6.39 h 13.4 v -4.46 z m -51.97,13.08 c -0.14,7.62 6.09,13.72 13.93,13.57 2.38,0 4.61,-0.43 6.7,-1.28 2.12,-0.81 3.72,-1.88 4.75,-3.15 v -10.6 h -11.8 v 4.18 h 7.2 v 4.19 c -1.42,1.28 -3.97,2.06 -6.84,2.06 -5.21,0 -8.94,-3.9 -8.94,-8.97 0,-5.07 3.51,-8.94 8.65,-8.94 3.23,0 5.74,1.42 7.27,3.72 l 4.25,-2.41 c -2.27,-3.58 -6.41,-5.95 -11.52,-5.95 -7.77,-0.14 -13.79,5.88 -13.65,13.58 m -20.1,-14.08 h -5.19 v 27.2 h 18.72 v -4.68 h -13.53 z m -29.71,17.07 4.17,-10.91 4.13,10.91 h -8.29 z m 12.16,10.13 h 5.53 l -10.8,-27.2 h -5.35 l -10.8,27.2 h 5.38 l 2.21,-5.79 h 11.61 l 2.21,5.79 z m -43.76,-10.13 4.17,-10.91 4.13,10.91 h -8.29 z m 12.17,10.13 h 5.53 l -10.8,-27.2 h -5.35 l -10.8,27.2 h 5.38 l 2.21,-5.79 h 11.61 l 2.21,5.79 z m -46.53,-27.2 h -4.97 v 27.2 h 5.12 V 34.22 l 13.2,18.61 h 4.97 v -27.2 h -5.12 v 18.61 z m -39.92,13.6 c -0.15,7.93 6.34,14.26 14.49,14.12 2.47,0 4.79,-0.44 6.97,-1.33 2.21,-0.85 3.87,-1.95 4.93,-3.28 V 37.72 H 77.11 v 4.34 h 7.49 v 4.35 c -1.48,1.33 -4.13,2.14 -7.12,2.14 -5.42,0 -9.29,-4.06 -9.29,-9.33 0,-5.27 3.65,-9.29 9,-9.29 3.36,0 5.97,1.48 7.56,3.87 l 4.42,-2.51 C 86.81,27.57 82.5,25.1 77.19,25.1 69.11,24.95 62.85,31.22 63,39.22 M 55.02,25.63 h -5.19 v 27.2 h 5.19 z M 20.15,47.45 c 1.81,3.57 5.93,5.89 11.09,5.89 6.31,0 10.69,-3.43 10.69,-8.18 0,-3.83 -2.43,-6.38 -7.33,-7.63 l -3.36,-0.89 c -3.58,-0.89 -4.98,-1.84 -4.98,-3.61 0,-1.95 2.07,-3.32 4.83,-3.32 2.76,0 5.2,1.29 6.23,3.21 l 4.24,-2.29 C 39.83,27.24 35.85,25.1 31.17,25.1 c -6.01,0 -10.06,3.42 -10.06,8.14 0,3.72 2.43,6.23 7.33,7.49 l 3.36,0.88 c 3.58,0.89 4.98,1.88 4.98,3.76 0,2.03 -2.36,3.36 -5.46,3.36 -3.1,0 -5.75,-1.55 -6.9,-3.65 l -4.27,2.36 z"
       id="path1" />
    <path
       class="st1"
       d="m 466.42,28.96 c 0,1.91 -1.55,3.45 -3.45,3.45 -1.9,0 -3.45,-1.55 -3.45,-3.45 0,-1.9 1.55,-3.45 3.45,-3.45 1.9,0 3.45,1.55 3.45,3.45 m 46.28,10.47 c 0,-8.15 -6.6,-14.75 -14.75,-14.75 -0.12,0 -0.24,0.02 -0.36,0.02 -0.1,0 -0.19,-0.02 -0.3,-0.02 -5.24,0 -9.82,2.78 -12.39,6.94 0,0 -0.94,1.28 -1.51,1.84 -1.85,1.85 -4.34,2.51 -6.76,2.51 h -0.17 c -2.49,0 -4.84,-0.66 -6.69,-2.51 -0.56,-0.56 -1.51,-1.84 -1.51,-1.84 -0.28,-0.45 -0.59,-0.88 -0.91,-1.3 0.14,-0.44 0.21,-0.91 0.21,-1.4 0,-2.56 -2.08,-4.64 -4.64,-4.64 -1.09,0 -2.1,0.38 -2.89,1.01 -1.32,-0.39 -2.71,-0.61 -4.16,-0.61 -0.1,0 -0.2,0.02 -0.3,0.02 -0.12,0 -0.24,-0.02 -0.36,-0.02 -8.15,0 -14.75,6.6 -14.75,14.75 0,8.15 6.6,14.75 14.75,14.75 0.4,0 0.8,-0.03 1.19,-0.06 l 0.04,0.02 c 5,-0.2 9.34,-2.9 11.81,-6.9 0,0 0.94,-1.28 1.51,-1.84 1.85,-1.85 4.11,-2.5 6.75,-2.5 h 0.12 c 2.42,0 4.9,0.65 6.75,2.5 0.56,0.56 1.51,1.84 1.51,1.84 2.47,4 6.81,6.7 11.81,6.9 l 0.04,-0.02 c 0.39,0.03 0.79,0.06 1.19,0.06 8.15,0 14.75,-6.6 14.75,-14.75"
       id="path2"
       style="fill:#000000" />
  </g>
</svg>
